<?xml version="1.0" encoding="UTF-8"?>
<svg id="Layer_1" xmlns="http://www.w3.org/2000/svg" version="1.1" viewBox="0 0 512 512">
  <!-- Generator: Adobe Illustrator 29.3.1, SVG Export Plug-In . SVG Version: 2.1.0 Build 151)  -->
  <defs>
    <style>
      .st0 {
        fill: #ff7c01;
      }

      .st1 {
        fill: #271302;
      }
    </style>
  </defs>
  <rect class="st1" y="7.6" width="512" height="496.9" rx="96.1" ry="96.1"/>
  <rect class="st1" x="23.7" y="31.3" width="464.6" height="449.4" rx="76.1" ry="76.1"/>
  <path class="st0" d="M126.8,342.8l-25.4,78.4c-.7,2.5-3.2,4.4-5.8,4.2h-61.5c-3.9,0-4.8-2.1-4.1-5.3L136.1,114.1c2.1-5.8,4.2-12.2,5.1-32.4,0-1.9,1.2-3.5,3.2-3.7h84.7c2.8,0,3.7.4,4.2,3.2l120.5,339.5c1.1,2.6.4,4.8-2.6,4.8h-68.9c-2.5.4-5.1-1.2-5.8-3.7l-27.1-79.1h-122.3.2c0,.2-.5,0-.5,0v.2ZM229.5,276.5c-10.7-35.1-31.7-99.2-41.9-136.7h-.7c-8.6,35.4-27.5,94.1-41.2,136.7h83.9,0Z"/>
  <path class="st0" d="M385.4,92.4c0-23.8,17.6-40.9,41.4-40.9s40.9,16.9,40.9,40.9-16.6,41.2-41.4,41.2-40.9-16.6-40.9-41.2ZM389.1,166.3c0-2.8,1.1-4.2,4.2-4.2h65.2c3.2,0,4.2,1.1,4.2,4.2v254.4c0,3.2-.4,4.8-4.8,4.8h-63.4c-3.7,0-5.3-1.8-5.3-4.8v-254.4h-.2Z"/>
</svg>