<?xml version="1.0" encoding="UTF-8"?>
<svg id="Layer_1" xmlns="http://www.w3.org/2000/svg" version="1.1" viewBox="0 0 512 512">
  <!-- Generator: Adobe Illustrator 29.3.1, SVG Export Plug-In . SVG Version: 2.1.0 Build 151)  -->
  <defs>
    <style>
      .st0 {
        fill: #002620;
      }

      .st1 {
        fill: #d8faf4;
      }
    </style>
  </defs>
  <rect class="st0" y="7.9" width="512" height="496.8" rx="96.1" ry="96.1"/>
  <rect class="st0" x="23.7" y="31.6" width="464.6" height="449.4" rx="76.1" ry="76.1"/>
  <path class="st1" d="M101.6,323.4l-20.4,62.9c-.6,2-2.5,3.5-4.7,3.4H27.2c-3,0-3.8-1.7-3.4-4.2l84.8-244.8c1.7-4.7,3.4-9.7,4.2-25.9,0-1.6,1-2.8,2.5-3h67.8c2.1,0,3,.3,3.4,2.5l96.4,271.6c.8,2.1.3,3.8-2.1,3.8h-55.1c-2,.3-3.9-1-4.7-3l-21.6-63.3h-98.1.1ZM184,270.3c-8.5-28-25.4-79.3-33.5-109.4h-.3c-6.9,28.3-22,75.1-33.1,109.4h67.1-.1Z"/>
  <path class="st1" d="M485.6,342.4c0,14.5.8,29.2,2.5,43.8.6,2.5-.8,3.4-3.8,3.4h-45c-3.4,0-4.2-.8-5.1-3-.8-3.8-2.1-9.3-2.5-13.2-18.7,16.2-39.9,20.4-58.1,20.4-42.4,0-71.6-23.4-71.6-81.9v-129.8c0-3,.8-3.4,3.8-3.4h51.7c2.5,0,3,.8,3,3.4v123c0,22.8,9.7,37.8,33.1,37.8,12.3.3,24.1-3.9,33.1-12.4v-148.5c0-2.5,1.3-3.4,4.2-3.4h51.3c3,0,3.4.8,3.4,3.4v160.4h-.1Z"/>
</svg>