<?xml version="1.0" encoding="UTF-8"?>
<svg id="Capa_1" xmlns="http://www.w3.org/2000/svg" width="512" height="512" version="1.1" xmlns:xlink="http://www.w3.org/1999/xlink" viewBox="0 0 512 512">
  <!-- Generator: Adobe Illustrator 29.3.1, SVG Export Plug-In . SVG Version: 2.1.0 Build 151)  -->
  <defs>
    <style>
      .st0 {
        fill: #33c481;
      }

      .st1 {
        fill: #fff;
      }

      .st2 {
        fill: #17864c;
      }

      .st3 {
        isolation: isolate;
        opacity: .2;
      }

      .st4 {
        fill: #185b37;
      }

      .st5 {
        fill: #107c41;
      }

      .st6 {
        fill: #21a365;
      }
    </style>
  </defs>
  <rect class="st6" x="314.6" y="141.9" width="197.4" height="119.3"/>
  <rect class="st5" x="314.6" y="261.2" width="197.4" height="119.3"/>
  <rect class="st5" x="117.7" y="141.9" width="197" height="119.3"/>
  <path class="st4" d="M314.6,380.5v-119.3H118.1v215c0,12.8,10.4,23.2,23.2,23.2h347.1c12.8,0,23.2-10.4,23.2-23.2v-95.7h-197Z"/>
  <path class="st0" d="M488.4,23h-174.1v119.3h197.8V46.2c-.4-12.8-10.8-23.2-23.6-23.2Z"/>
  <path class="st6" d="M314.6,23h-172.9c-12.8,0-23.2,10.4-23.2,23.2v95.7h196.6V23h-.4Z"/>
  <path class="st2" d="M237.8,391.3H25.6c-14,0-25.6-11.6-25.6-25.6v-209c0-14,11.6-25.6,25.6-25.6h212.2c14,0,25.6,11.6,25.6,25.6v209c0,14-11.2,25.6-25.6,25.6Z"/>
  <path class="st1" d="M161.7,334.9l-15.6-28.4c-6.4-11.2-10.4-18.8-14.8-27.2h-.4c-3.6,8.4-7.2,16-13.2,27.2l-14,28.4h-30.4l43.2-72.5-42-71.3h30.8l15.6,29.6c4.8,8.8,8.4,16,12,24h.8c4-8.8,6.8-15.2,11.6-24l15.6-29.6h30.4l-42.8,70.1,44.4,73.7h-31.2Z"/>
  <path class="st3" d="M266.6,154.3v211.4c0,14-11.6,25.6-25.6,25.6h-119.7v22.8h140.9c14,0,25.6-11.6,25.6-25.6v-209c.4-12.8-9.2-23.6-21.2-25.2Z"/>
</svg>