<?xml version="1.0" encoding="UTF-8"?>
<svg id="_图层_1" data-name="图层_1" xmlns="http://www.w3.org/2000/svg" width="512" height="512" version="1.1" viewBox="0 0 512 512">
  <!-- Generator: Adobe Illustrator 29.3.1, SVG Export Plug-In . SVG Version: 2.1.0 Build 151)  -->
  <defs>
    <style>
      .st0 {
        fill: #fff;
      }

      .st1 {
        fill: #e44f26;
      }

      .st2 {
        fill: #ebebeb;
      }

      .st3 {
        fill: #f1662a;
      }
    </style>
  </defs>
  <polygon class="st1" points="71.4 460.8 30.3 0 481.7 0 440.6 460.7 255.7 512 71.4 460.8"/>
  <polygon class="st3" points="256 472.8 405.4 431.4 440.5 37.7 256 37.7 256 472.8"/>
  <polygon class="st2" points="256 208.6 181.2 208.6 176.1 150.7 256 150.7 256 94.2 255.8 94.2 114.3 94.2 115.6 109.4 129.5 265.1 256 265.1 256 208.6"/>
  <polygon class="st2" points="256 355.4 255.7 355.4 192.8 338.5 188.8 293.4 158.2 293.4 132 293.4 140 382.1 255.7 414.2 256 414.2 256 355.4"/>
  <polygon class="st0" points="255.8 208.6 255.8 265.1 325.4 265.1 318.8 338.4 255.8 355.4 255.8 414.2 371.7 382.1 372.5 372.6 385.8 223.8 387.2 208.6 371.9 208.6 255.8 208.6"/>
  <polygon class="st0" points="230.2 94.2 230.2 129.3 230.2 150.6 230.2 150.7 366.5 150.7 366.5 150.7 366.7 150.7 367.8 138 370.4 109.4 371.8 94.2 230.2 94.2"/>
</svg>