<?xml version="1.0" encoding="UTF-8"?>
<svg id="Capa_1" xmlns="http://www.w3.org/2000/svg" width="512" height="512" version="1.1" xmlns:xlink="http://www.w3.org/1999/xlink" viewBox="0 0 512 512">
  <!-- Generator: Adobe Illustrator 29.3.1, SVG Export Plug-In . SVG Version: 2.1.0 Build 151)  -->
  <defs>
    <style>
      .st0 {
        fill: #7719aa;
      }

      .st1 {
        fill: #fff;
      }

      .st2 {
        fill: #7e1faf;
      }

      .st3 {
        isolation: isolate;
        opacity: .2;
      }

      .st4 {
        fill: #ca64ea;
      }

      .st5 {
        fill: #ae4bd5;
      }

      .st6 {
        fill: #9332bf;
      }
    </style>
  </defs>
  <path class="st4" d="M484.2,490.1H142.9c-12.7,0-23.4-10.3-23.4-23.4V42c0-12.7,10.3-23.4,23.4-23.4h341.7c12.7,0,23.4,10.3,23.4,23.4v424.7c-.4,13.1-10.7,23.4-23.8,23.4Z"/>
  <path class="st2" d="M235.7,382.1H25.4c-13.9,0-25.4-11.5-25.4-25.4v-207.2c0-13.9,11.5-25.4,25.4-25.4h210.3c13.9,0,25.4,11.5,25.4,25.4v207.2c0,13.9-11.1,25.4-25.4,25.4Z"/>
  <path class="st1" d="M76.2,326.2v-142.5h30.2l37.3,61.1c9.5,15.9,17.9,32.1,24.6,47.6l.4-.4c-2-18.7-2.4-36.9-2.4-58.7v-49.6h24.6v142.5h-27.4l-37.7-62.7c-9.1-15.5-18.7-32.9-25.8-48.8h-1.2c1.2,18.3,1.6,37.3,1.6,60.7v50.8h-24.2Z"/>
  <rect class="st5" x="390.5" y="138.9" width="117.1" height="117.1"/>
  <rect class="st6" x="390.5" y="256.3" width="117.1" height="117.1"/>
  <path class="st0" d="M390.5,490.1h96c11.9-1.2,21-11.1,21-23v-94.1h-117.1v117.1Z"/>
  <path class="st3" d="M261.1,147.2v209.6c0,13.9-11.5,25.4-25.4,25.4h-116.3v22.6h137.3c13.9,0,25.4-11.5,25.4-25.4v-207.2c0-12.7-9.1-23.4-21-25Z"/>
</svg>