<?xml version="1.0" encoding="UTF-8"?>
<svg id="Capa_1" xmlns="http://www.w3.org/2000/svg" width="512" height="512" version="1.1" xmlns:xlink="http://www.w3.org/1999/xlink" viewBox="0 0 512 512">
  <!-- Generator: Adobe Illustrator 29.3.1, SVG Export Plug-In . SVG Version: 2.1.0 Build 151)  -->
  <defs>
    <style>
      .st0 {
        fill: #ed6b47;
      }

      .st1 {
        fill: #c8421d;
      }

      .st2 {
        fill: #fff;
      }

      .st3 {
        fill: #ff8f6a;
      }

      .st4 {
        isolation: isolate;
        opacity: .2;
      }
    </style>
  </defs>
  <path class="st1" d="M280.2,485.7c126.8,0,229.8-103,229.8-229.8H50.3c0,127.2,103,229.8,229.8,229.8Z"/>
  <path class="st3" d="M280.2,26v229.8h229.8c0-126.8-102.6-229.8-229.8-229.8Z"/>
  <path class="st0" d="M50.7,255.8h229.8V26c-126.8,0-229.8,103-229.8,229.8Z"/>
  <path class="st1" d="M236.6,383.4H26.5c-13.9,0-25.4-11.5-25.4-25.4v-206.9c0-13.9,11.5-25.4,25.4-25.4h210c13.9,0,25.4,11.5,25.4,25.4v206.9c0,13.9-11.5,25.4-25.4,25.4Z"/>
  <path class="st2" d="M113.7,272.9v54.3h-30.5v-149.8h60.6c17.4,0,31.3,4.4,41.2,13.1,9.9,8.7,15.1,20.2,15.1,34.9s-5.2,25.8-15.1,34.5c-9.9,8.7-23.8,13.1-41.2,13.1h-30.1ZM113.7,249.9h30.1c8.3,0,15.1-2.4,19.4-6.7,4.4-4.8,6.7-10.3,6.7-17.4s-2-13.1-6.3-17.8-10.7-7.1-19.4-7.1h-30.1v49.1h-.4Z"/>
  <path class="st4" d="M261.1,148.8v209.2c0,13.9-11.5,25.4-25.4,25.4H89.9l15.1,22.6h151.8c13.9,0,25.4-11.5,25.4-25.4v-206.9c.4-12.7-8.7-23.4-21-25Z"/>
</svg>