<?xml version="1.0" encoding="UTF-8"?>
<svg id="Layer_1" xmlns="http://www.w3.org/2000/svg" version="1.1" viewBox="0 0 512 512">
  <!-- Generator: Adobe Illustrator 29.3.1, SVG Export Plug-In . SVG Version: 2.1.0 Build 151)  -->
  <defs>
    <style>
      .st0 {
        fill: #ed9efb;
      }

      .st1 {
        fill: #2c083d;
      }
    </style>
  </defs>
  <rect class="st1" y="7.6" width="511.6" height="496.4" rx="96.1" ry="96.1"/>
  <rect class="st1" x="23.7" y="31.3" width="464.2" height="449" rx="76.1" ry="76.1"/>
  <path class="st0" d="M26.8,84.8c0-3.2.5-4.3,3.2-4.3,22-.5,64.6-1.6,105.6-1.6,108.8,0,146.4,60.3,146.4,119,0,87.1-67.3,124.4-150.1,124.4h-30.6v105.9c0,2.7-1.1,4.3-4.3,4.3H30.5c-2.7,0-3.8-1.6-3.8-4.3V84.8h0ZM101,255.9c9.1.5,15,.5,30.2.5,42.6,0,76.4-12.9,76.4-57.1s-23.1-55.5-70-55.5-31.9.5-36.7,1.1v110.9h0Z"/>
  <path class="st0" d="M385.7,165c3-.2,5.7,1.8,6.4,4.8,3.4,9.7,5.5,19.9,5.9,30.2,21.3-25.4,52.6-40.1,85.5-40.3,3.2,0,4.3,1.1,4.3,4.3v66.2c0,2.7-1.1,3.8-4.8,3.8-38.8-1.6-70,10.2-81.2,23.1l-.5,171.2c0,3.2-1.1,4.3-4.8,4.3h-64.2c-4.3,0-5.4-1.6-5.4-4.8v-185.7c0-23.1-.5-54.4-2.7-73.2,0-2.7.5-3.8,3.2-3.8h58.5l-.2-.2Z"/>
</svg>