<?xml version="1.0" encoding="UTF-8"?>
<svg id="Layer_1" xmlns="http://www.w3.org/2000/svg" version="1.1" viewBox="0 0 512 512">
  <!-- Generator: Adobe Illustrator 29.3.1, SVG Export Plug-In . SVG Version: 2.1.0 Build 151)  -->
  <defs>
    <style>
      .st0 {
        fill: #001d23;
      }

      .st1 {
        fill: #01c8fe;
      }
    </style>
  </defs>
  <rect class="st0" x=".2" y="7.8" width="511.6" height="496.4" rx="96.1" ry="96.1"/>
  <rect class="st0" x="23.9" y="31.5" width="464.2" height="449" rx="76.1" ry="76.1"/>
  <path class="st1" d="M24.3,89.9c0-3.1.3-4.1,3.1-4.1,21.1-.3,61.8-1.5,101.2-1.5,104.1,0,140.2,57.6,140.2,113.9,0,83.6-64.6,119.1-144,119.1h-29.5v101.5c0,2.6-1,4.1-4.1,4.1H27.5c-2.6,0-3.6-1.5-3.6-4.1V89.4h0v.3h.4ZM95.6,253.7c8.8.3,14.3.3,28.8.3,40.8,0,73.2-12.4,73.2-54.7s-22.1-53.2-67-53.2-30.6.3-35.1,1v106.1h0v.3h.2-.1Z"/>
  <path class="st1" d="M401.3,218.6c-24.2,0-32.1,8.8-32.1,17.4s6.7,15.4,36.5,26.7c62.3,22.8,82,47,82,83.6s-38.2,81.4-106.1,81.4-58.8-5.7-74.7-14.3c-2.3-1-3.6-3.3-3.6-5.7v-55.5c0-3.1,2.1-4.6,4.1-3.1,23.8,15.1,52.6,20.7,75.8,20.7s35.1-6.7,35.1-17.4-8.8-16.9-39.2-28.5c-58.3-21.8-77.3-46.5-77.3-83.6s32.4-79.1,100.4-79.1,54.2,4.1,67,10.3c2.4,1.2,3.8,3.8,3.6,6.7v51.6c0,3.1-2.1,5.2-5.2,3.6-16.8-8.8-43.1-14.8-66.4-14.8h0v-.2h.1Z"/>
</svg>