<?xml version="1.0" encoding="UTF-8"?>
<svg id="Capa_1" xmlns="http://www.w3.org/2000/svg" version="1.1" xmlns:xlink="http://www.w3.org/1999/xlink" viewBox="0 0 512 512">
  <!-- Generator: Adobe Illustrator 29.3.1, SVG Export Plug-In . SVG Version: 2.1.0 Build 151)  -->
  <defs>
    <style>
      .st0 {
        fill: #2166c3;
      }

      .st1 {
        fill: #fff;
      }

      .st2 {
        fill: #41a5ed;
      }

      .st3 {
        fill: #103e91;
      }

      .st4 {
        fill: #195abe;
      }

      .st5 {
        isolation: isolate;
        opacity: .2;
      }

      .st6 {
        fill: #2c7bd5;
      }
    </style>
  </defs>
  <path class="st2" d="M511.9,136.6H118.1V41c0-12.8,10.4-23.2,23.2-23.2h347c12.8,0,23.2,10.4,23.2,23.2v95.6h.4Z"/>
  <rect class="st6" x="118.1" y="136.6" width="393.8" height="119.3"/>
  <rect class="st4" x="118.1" y="255.9" width="393.8" height="119.3"/>
  <path class="st3" d="M488.6,494H141.7c-12.8,0-23.2-10.4-23.2-23.2v-95.6h393.4v95.6c0,12.8-10.4,23.2-23.2,23.2Z"/>
  <path class="st0" d="M237.7,385.9H25.6c-14,0-25.6-11.6-25.6-25.6v-208.9c0-14,11.6-25.6,25.6-25.6h212.1c14,0,25.6,11.6,25.6,25.6v208.9c0,14-11.2,25.6-25.6,25.6Z"/>
  <path class="st1" d="M76.8,329.5l-35.6-143.7h28.4l14,65.2c3.6,17.6,7.2,35.6,9.6,50h.4c2.4-15.2,6.4-32,10.4-50.4l15.6-64.8h28l14.4,66c3.6,17.2,6.8,32.8,8.8,48.4h.4c2.4-16,6-32,10-49.6l15.2-64.8h27.2l-39.2,143.7h-28.8l-15.2-67.6c-3.6-16-6.4-29.6-8.4-45.2h-.4c-2.4,15.2-5.2,29.2-9.6,45.6l-16.8,67.6h-28.4v-.4Z"/>
  <path class="st5" d="M263.3,149v211.3c0,14-11.6,25.6-25.6,25.6h-119.3v22.8h140.9c14,0,25.6-11.6,25.6-25.6v-208.9c0-12.8-9.2-23.6-21.6-25.2Z"/>
</svg>